# AST/ASF file generated using VICON BodyLanguage
# -----------------------------------------------
:version 1.10
:name VICON
:units
  mass 1.0
  length 0.45
  angle deg
:documentation
   .ast/.asf automatically generated from VICON data using
   VICON BodyBuilder and BodyLanguage model FoxedUp or BRILLIANT.MOD
:root
   order TX TY TZ RX RY RZ
   axis XYZ
   position 0 0 0  
   orientation 0 0 0 
:bonedata
  begin
     id 1 
     name lhipjoint
     direction 0.54267 -0.795011 0.271047 
     length 2.39899 
     axis 0 0 0  XYZ
  end
  begin
     id 2 
     name lfemur
     direction 0.34202 -0.939693 0  
     length 7.49701  
     axis 0 0 20  XYZ
    dof rx ry rz
    limits (-160.0 20.0)
           (-70.0 70.0)
           (-60.0 70.0)
  end
  begin
     id 3 
     name ltibia
     direction 0.34202 -0.939693 0   
     length 8.1668   
     axis 0 0 20   XYZ
    dof rx
    limits (-10.0 170.0)
  end
  begin
     id 4 
     name lfoot
     direction 0.0736283 -0.202292 0.976554   
     length 2.13544   
     axis -90 7.62852e-016 20   XYZ
    dof rx rz
    limits (-45.0 90.0)
           (-70.0 20.0)
  end
  begin
     id 5 
     name ltoes
     direction 1.53557e-011 -4.22024e-011 1   
     length 1.07411   
     axis -90 7.62852e-016 20   XYZ
    dof rx
    limits (-90.0 20.0)
  end
  begin
     id 6 
     name rhipjoint
     direction -0.538061 -0.797813 0.272002   
     length 2.39057  
     axis 0 0 0  XYZ 
  end
  begin
     id 7 
     name rfemur
     direction -0.34202 -0.939693 0   
     length 7.50152   
     axis 0 0 -20   XYZ
    dof rx ry rz
    limits (-160.0 20.0)
           (-70.0 70.0)
           (-70.0 60.0)
  end
  begin
     id 8 
     name rtibia
     direction -0.34202 -0.939693 0   
     length 8.05793   
     axis 0 0 -20   XYZ
    dof rx
    limits (-10.0 170.0)
 end
 begin
     id 9 
     name rfoot
     direction -0.0765195 -0.210236 0.974652   
     length 2.28698  
     axis -90 -7.62852e-016 -20   XYZ
    dof rx rz
    limits (-45.0 90.0)
           (-20.0 70.0)
  end
  begin
     id 10 
     name rtoes
     direction -1.53542e-011 -4.21847e-011 1   
     length 1.14762   
     axis -90 -7.62852e-016 -20   XYZ
    dof rx
    limits (-90.0 20.0)
  end
  begin
     id 11 
     name lowerback
     direction -0.0217239 0.996592 -0.0795765   
     length 2.08176   
     axis 0 0 0   XYZ
    dof rx ry rz
    limits (-20.0 45.0)
           (-30.0 30.0)
           (-30.0 30.0)
  end
  begin
     id 12 
     name upperback
     direction -0.00563773 0.999651 -0.0258155   
     length 2.08898   
     axis 0 0 0   XYZ
    dof rx ry rz
    limits (-20.0 45.0)
           (-30.0 30.0)
           (-30.0 30.0)
  end
  begin
     id 13 
     name thorax
     direction 0.0032706 0.999923 0.0119599   
     length 2.0968   
     axis 0 0 0   XYZ
    dof rx ry rz
    limits (-20.0 45.0)
           (-30.0 30.0)
           (-30.0 30.0)
  end
  begin
     id 14 
     name lowerneck
     direction -0.0285886 0.99568 0.0883427   
     length 1.81272   
     axis 0 0 0   XYZ
    dof rx ry rz
    limits (-20.0 45.0)
           (-30.0 30.0)
           (-30.0 30.0)
  end
  begin
     id 15 
     name upperneck
     direction 0.0807535 0.97985 -0.18268   
     length 1.82518   
     axis 0 0 0   XYZ
    dof rx ry rz
    limits (-20.0 45.0)
           (-30.0 30.0)
           (-30.0 30.0)
  end
  begin
     id 16
     name head
     direction 0.0236605 0.997053 -0.0729767  
     length 1.84443  
     axis 0 0 0   XYZ
    dof rx ry rz
    limits (-20.0 45.0)
           (-30.0 30.0)
           (-30.0 30.0)
  end
  begin
     id 17 
     name lclavicle
     direction 0.918986 0.39378 -0.0200683  
     length 3.27822  
     axis 0 0 0   XYZ
    dof ry rz
    limits (-20.0 10.0)
           (0.0 20.0)
  end
  begin
     id 18 
     name lhumerus
     direction 1 -4.4897e-011 2.09544e-027   
     length 5.5568   
     axis 180 -30 -90   XYZ
    dof rx ry rz
    limits (-60.0 90.0)
           (-90.0 90.0)
           (-90.0 90.0)
  end
  begin
     id 19
     name lradius
     direction 1 -4.48957e-011 -1.27696e-026   
     length 3.63979   
     axis 180 -30 -90   XYZ
    dof rx
    limits (-10.0 170.0)
  end
  begin
     id 20
     name lwrist
     direction 1 -4.49001e-011 -1.49001e-026   
     length 1.8199   
     axis 9.0955e-015 90 90   XYZ
    dof ry
    limits (-180.0 0.0)
 end
  begin
     id 21 
     name lhand
     direction 1 -4.48709e-011 -2.9758e-026   
     length 0.569419   
     axis 1.90115e-014 90 90   XYZ
    dof rx rz
    limits (-90.0 90.0)
           (-45.0 45.0)
  end
  begin
     id 22 
     name lfingers
     direction 1 -4.49175e-011 -5.96505e-026   
     length 0.45908   
     axis 3.80223e-014 90 90   XYZ
    dof rx
    limits (0.0 90.0)
  end
  begin
     id 23
     name lthumb
     direction 0.707107 -6.34864e-011 0.707107   
     length 0.65915   
     axis -90 45 -3.84942e-014   XYZ
    dof rx rz
    limits (-45.0 45.0)
           (-45.0 45.0)
  end
  begin
     id 24 
     name rclavicle
     direction -0.911913 0.396426 -0.106115   
     length 3.46301  
     axis 0 0 0   XYZ 
    dof ry rz
    limits (-10.0 20.0)
           (-20.0 0.0)
  end
  begin
     id 25 
     name rhumerus
     direction -1 -4.48965e-011 7.78516e-028  
     length 5.34339   
     axis 180 30 90   XYZ
    dof rx ry rz
    limits (-90.0 60.0)
           (-90.0 90.0)
           (-90.0 90.0)
  end
  begin
     id 26 
     name rradius
     direction -1 -4.48948e-011 -5.79823e-027   
     length 3.65101   
     axis 180 30 90   XYZ
    dof rx
    limits (-10.0 170.0)
  end
  begin
     id 27 
     name rwrist
     direction -1 -4.48995e-011 -1.48996e-026   
     length 1.8255   
     axis 9.0955e-015 -90 -90   XYZ
    dof ry
    limits (-180.0 0.0)
  end
  begin
     id 28
     name rhand
     direction -1 -4.48957e-011 -2.97937e-026   
     length 0.694249   
     axis 1.90115e-014 -90 -90   XYZ
    dof rx rz
    limits (-90.0 90.0)
           (-45.0 45.0)
  end
  begin
     id 29
     name rfingers
     direction -1 -4.4898e-011 -5.95943e-026   
     length 0.559721   
     axis 3.80223e-014 -90 -90   XYZ
    dof rx
    limits (0.0 90.0)
  end
  begin
     id 30
     name rthumb
     direction -0.707107 -6.34969e-011 0.707107   
     length 0.803651   
     axis -90 -45 3.84942e-014   XYZ
    dof rx rz
    limits (-45.0 45.0)
           (-45.0 45.0)
  end
:hierarchy
  begin
    root lhipjoint rhipjoint lowerback
    lhipjoint lfemur
    lfemur ltibia
    ltibia lfoot
    lfoot ltoes
    rhipjoint rfemur
    rfemur rtibia
    rtibia rfoot
    rfoot rtoes
    lowerback upperback
    upperback thorax
    thorax lowerneck lclavicle rclavicle
    lowerneck upperneck
    upperneck head
    lclavicle lhumerus
    lhumerus lradius
    lradius lwrist
    lwrist lhand lthumb
    lhand lfingers
    rclavicle rhumerus
    rhumerus rradius
    rradius rwrist
    rwrist rhand rthumb
    rhand rfingers
  end

#!OML:ASF H:\Terrain\Walking\May29\JustinRory\rory.ASF
:FULLY-SPECIFIED
:DEGREES
34
root 11.5426 18.5762 -2.80103 0.243122 -7.03472 4.2638
lowerback 2.29611 -1.065 -5.72611
upperback 1.83053 -1.5123 -0.340663
thorax 0.737615 -0.814159 2.88024
lowerneck -4.81603 -12.6734 -12.4439
upperneck 31.1257 -20.2952 11.0811
head 13.8939 -9.37872 3.41682
rclavicle -1.44492e-014 -1.23246e-014
rhumerus -48.2901 -4.12445 -81.3022
rradius 54.4595
rwrist -12.6431
rhand -12.1948 33.8482
rfingers 7.12502
rthumb 13.8693 4.33062
lclavicle -1.44492e-014 -1.23246e-014
lhumerus -37.2981 8.97729 71.0826
lradius 48.1056
lwrist 34.3581
lhand -12.5856 19.4056
lfingers 7.12502
lthumb 13.4926 48.9485
rfemur -6.05846 9.03579 12.1029
rtibia 53.6691
rfoot 16.6347 6.92966
rtoes 8.915
lfemur -14.8124 0.0857478 -24.8409
ltibia 21.4432
lfoot -5.9641 1.65203
ltoes 2.9496
35
root 11.573 18.5747 -2.68697 0.170076 -6.91915 4.45116
lowerback 2.47458 -1.12526 -5.88827
upperback 1.74951 -1.61046 -0.402742
thorax 0.566279 -0.857973 2.91354
lowerneck -4.72909 -13.1183 -12.0314
upperneck 30.569 -20.7451 10.5221
head 13.5628 -9.6068 3.05546
rclavicle 2.34069e-014 6.85807e-015
rhumerus -48.4102 -4.15056 -81.2494
rradius 54.2343
rwrist -12.0093
rhand -12.0955 34.8053
rfingers 7.12502
rthumb 13.965 5.29435
lclavicle 2.34069e-014 6.85807e-015
lhumerus -36.8994 8.24125 71.3789
lradius 48.8952
lwrist 34.2993
lhand -13.1451 18.8737
lfingers 7.12502
lthumb 12.9533 48.4516
rfemur -7.31664 8.80811 11.7604
rtibia 55.5179
rfoot 15.8156 6.74913
rtoes 6.59946
lfemur -14.3088 0.128848 -25.2317
ltibia 21.3581
lfoot -6.2334 1.45267
ltoes 2.79781
36
root 11.6035 18.5802 -2.56795 0.0234545 -6.639 4.68264
lowerback 2.59983 -1.27612 -6.0915
upperback 1.81058 -1.82178 -0.545315
thorax 0.581357 -0.96631 2.88518
lowerneck -4.48177 -13.3026 -11.92
upperneck 29.8595 -20.9647 10.6049
head 13.2329 -9.71655 3.04625
rclavicle -6.75868e-015 2.5842e-015
rhumerus -48.3976 -3.98271 -81.4446
rradius 54.207
rwrist -11.6138
rhand -12.4675 34.8821
rfingers 7.12502
rthumb 13.6065 5.34674
lclavicle -6.75868e-015 2.5842e-015
lhumerus -36.4282 7.61741 71.4642
lradius 50.0073
lwrist 34.4002
lhand -13.8171 18.5051
lfingers 7.12502
lthumb 12.3054 48.123
rfemur -8.51288 8.48851 11.4002
rtibia 57.3219
rfoot 14.6073 6.58004
rtoes 3.51657
lfemur -13.6193 0.0555389 -25.685
ltibia 21.1263
lfoot -6.4758 1.21712
ltoes 3.71256
37
root 11.6303 18.6056 -2.45073 -0.109118 -6.25868 4.79519
lowerback 2.71609 -1.48063 -6.26207
upperback 1.96493 -2.09988 -0.639643
thorax 0.705354 -1.11328 2.88723
lowerneck -4.32508 -13.5282 -11.8521
upperneck 29.1711 -21.2506 10.7425
head 12.9603 -9.84994 3.04519
rclavicle 4.71492e-014 1.21259e-014
rhumerus -48.1743 -3.80794 -81.7375
rradius 54.2948
rwrist -11.5147
rhand -12.6725 34.4695
rfingers 7.12502
rthumb 13.4088 4.92107
lclavicle 4.71492e-014 1.21259e-014
lhumerus -35.8387 7.27349 71.5449
lradius 51.2019
lwrist 34.3911
lhand -13.7721 20.3271
lfingers 7.12502
lthumb 12.3488 49.9424
rfemur -9.88372 8.22804 11.1603
rtibia 59.0222
rfoot 13.8624 5.08419
rtoes 2.9374
lfemur -12.9296 -0.029917 -25.9874
ltibia 20.8894
lfoot -6.70179 0.898369
ltoes 4.82674
38
root 11.6514 18.6115 -2.33342 -0.170996 -5.9083 4.50302
lowerback 2.76141 -1.57477 -6.0709
upperback 2.06544 -2.22107 -0.492016
thorax 0.793542 -1.17756 2.93356
lowerneck -4.26815 -13.9149 -11.8509
upperneck 28.7777 -21.6513 10.4214
head 12.7955 -10.0709 2.85507
rclavicle 1.67849e-014 -6.65929e-015
rhumerus -48.0574 -3.84462 -81.6228
rradius 54.3422
rwrist -11.3862
rhand -12.6826 34.48
rfingers 7.12502
rthumb 13.3992 4.9309
lclavicle 1.67849e-014 -6.65929e-015
lhumerus -35.1678 6.81183 72.0143
lradius 52.0131
lwrist 34.4619
lhand -13.822 20.9073
lfingers 7.12502
lthumb 12.3007 50.5255
rfemur -10.9774 7.65624 11.5093
rtibia 60.4531
rfoot 12.4381 4.60292
rtoes -3.13758
lfemur -12.3234 -0.19777 -25.8033
ltibia 20.6912
lfoot -6.91883 0.733994
ltoes 5.38803
39
root 11.6766 18.6112 -2.21493 -0.204122 -5.52875 4.36337
lowerback 2.9023 -1.67889 -5.97377
upperback 1.98644 -2.37087 -0.342164
thorax 0.649647 -1.24661 3.04228
lowerneck -3.47401 -14.3154 -12.4855
upperneck 28.0903 -22.1688 10.5861
head 12.5368 -10.4049 2.96958
rclavicle -1.20016e-014 -3.77691e-015
rhumerus -48.3939 -3.72497 -81.3344
rradius 54.5354
rwrist -11.213
rhand -12.6742 34.7811
rfingers 7.12502
rthumb 13.4072 5.23251
lclavicle -1.20016e-014 -3.77691e-015
lhumerus -34.8112 6.33123 72.5108
lradius 52.8561
lwrist 34.4418
lhand -13.543 20.716
lfingers 7.12502
lthumb 12.5697 50.3179
rfemur -12.0436 7.18236 11.6312
rtibia 61.689
rfoot 11.2599 3.70289
rtoes -3.60114
lfemur -11.7956 -0.387396 -25.807
ltibia 20.5499
lfoot -7.03835 0.700245
ltoes 5.89319
